<svg id="visual" viewBox="0 0 900 300" width="900" height="300" xmlns="http://www.w3.org/2000/svg" xmlns:xlink="http://www.w3.org/1999/xlink" version="1.1"><rect x="0" y="0" width="900" height="300" fill="#272A2F"></rect><path d="M0 208L13.7 209.5C27.3 211 54.7 214 82 211.7C109.3 209.3 136.7 201.7 163.8 197.8C191 194 218 194 245.2 197.8C272.3 201.7 299.7 209.3 327 214.5C354.3 219.7 381.7 222.3 409 223.5C436.3 224.7 463.7 224.3 491 223.8C518.3 223.3 545.7 222.7 573 223.5C600.3 224.3 627.7 226.7 654.8 226.5C682 226.3 709 223.7 736.2 222.2C763.3 220.7 790.7 220.3 818 217.7C845.3 215 872.7 210 886.3 207.5L900 205L900 301L886.3 301C872.7 301 845.3 301 818 301C790.7 301 763.3 301 736.2 301C709 301 682 301 654.8 301C627.7 301 600.3 301 573 301C545.7 301 518.3 301 491 301C463.7 301 436.3 301 409 301C381.7 301 354.3 301 327 301C299.7 301 272.3 301 245.2 301C218 301 191 301 163.8 301C136.7 301 109.3 301 82 301C54.7 301 27.3 301 13.7 301L0 301Z" fill="#9f7059"></path><path d="M0 236L13.7 232.5C27.3 229 54.7 222 82 219.2C109.3 216.3 136.7 217.7 163.8 217.5C191 217.3 218 215.7 245.2 218.2C272.3 220.7 299.7 227.3 327 228.7C354.3 230 381.7 226 409 222.3C436.3 218.7 463.7 215.3 491 218.3C518.3 221.3 545.7 230.7 573 234.5C600.3 238.3 627.7 236.7 654.8 233.5C682 230.3 709 225.7 736.2 221.5C763.3 217.3 790.7 213.7 818 215.5C845.3 217.3 872.7 224.7 886.3 228.3L900 232L900 301L886.3 301C872.7 301 845.3 301 818 301C790.7 301 763.3 301 736.2 301C709 301 682 301 654.8 301C627.7 301 600.3 301 573 301C545.7 301 518.3 301 491 301C463.7 301 436.3 301 409 301C381.7 301 354.3 301 327 301C299.7 301 272.3 301 245.2 301C218 301 191 301 163.8 301C136.7 301 109.3 301 82 301C54.7 301 27.3 301 13.7 301L0 301Z" fill="#8a5a5c"></path><path d="M0 248L13.7 246.5C27.3 245 54.7 242 82 243.3C109.3 244.7 136.7 250.3 163.8 250.2C191 250 218 244 245.2 241.5C272.3 239 299.7 240 327 240C354.3 240 381.7 239 409 240.2C436.3 241.3 463.7 244.7 491 243.5C518.3 242.3 545.7 236.7 573 233.5C600.3 230.3 627.7 229.7 654.8 232C682 234.3 709 239.7 736.2 243.3C763.3 247 790.7 249 818 250.3C845.3 251.7 872.7 252.3 886.3 252.7L900 253L900 301L886.3 301C872.7 301 845.3 301 818 301C790.7 301 763.3 301 736.2 301C709 301 682 301 654.8 301C627.7 301 600.3 301 573 301C545.7 301 518.3 301 491 301C463.7 301 436.3 301 409 301C381.7 301 354.3 301 327 301C299.7 301 272.3 301 245.2 301C218 301 191 301 163.8 301C136.7 301 109.3 301 82 301C54.7 301 27.3 301 13.7 301L0 301Z" fill="#6a4b5a"></path><path d="M0 244L13.7 245.5C27.3 247 54.7 250 82 249.3C109.3 248.7 136.7 244.3 163.8 244C191 243.7 218 247.3 245.2 247.7C272.3 248 299.7 245 327 244.8C354.3 244.7 381.7 247.3 409 250.2C436.3 253 463.7 256 491 255.3C518.3 254.7 545.7 250.3 573 248.3C600.3 246.3 627.7 246.7 654.8 249.3C682 252 709 257 736.2 258.2C763.3 259.3 790.7 256.7 818 253.8C845.3 251 872.7 248 886.3 246.5L900 245L900 301L886.3 301C872.7 301 845.3 301 818 301C790.7 301 763.3 301 736.2 301C709 301 682 301 654.8 301C627.7 301 600.3 301 573 301C545.7 301 518.3 301 491 301C463.7 301 436.3 301 409 301C381.7 301 354.3 301 327 301C299.7 301 272.3 301 245.2 301C218 301 191 301 163.8 301C136.7 301 109.3 301 82 301C54.7 301 27.3 301 13.7 301L0 301Z" fill="#483e4f"></path><path d="M0 266L13.7 266C27.3 266 54.7 266 82 266C109.3 266 136.7 266 163.8 265C191 264 218 262 245.2 261.8C272.3 261.7 299.7 263.3 327 266C354.3 268.7 381.7 272.3 409 273C436.3 273.7 463.7 271.3 491 269.7C518.3 268 545.7 267 573 268C600.3 269 627.7 272 654.8 270.8C682 269.7 709 264.3 736.2 262.8C763.3 261.3 790.7 263.7 818 265C845.3 266.3 872.7 266.7 886.3 266.8L900 267L900 301L886.3 301C872.7 301 845.3 301 818 301C790.7 301 763.3 301 736.2 301C709 301 682 301 654.8 301C627.7 301 600.3 301 573 301C545.7 301 518.3 301 491 301C463.7 301 436.3 301 409 301C381.7 301 354.3 301 327 301C299.7 301 272.3 301 245.2 301C218 301 191 301 163.8 301C136.7 301 109.3 301 82 301C54.7 301 27.3 301 13.7 301L0 301Z" fill="#2d303b"></path><path d="M0 273L13.7 275C27.3 277 54.7 281 82 283.3C109.3 285.7 136.7 286.3 163.8 286C191 285.7 218 284.3 245.2 283.3C272.3 282.3 299.7 281.7 327 280C354.3 278.3 381.7 275.7 409 277.3C436.3 279 463.7 285 491 287C518.3 289 545.7 287 573 285C600.3 283 627.7 281 654.8 281.8C682 282.7 709 286.3 736.2 285.8C763.3 285.3 790.7 280.7 818 278.7C845.3 276.7 872.7 277.3 886.3 277.7L900 278L900 301L886.3 301C872.7 301 845.3 301 818 301C790.7 301 763.3 301 736.2 301C709 301 682 301 654.8 301C627.7 301 600.3 301 573 301C545.7 301 518.3 301 491 301C463.7 301 436.3 301 409 301C381.7 301 354.3 301 327 301C299.7 301 272.3 301 245.2 301C218 301 191 301 163.8 301C136.7 301 109.3 301 82 301C54.7 301 27.3 301 13.7 301L0 301Z" fill="#1c2023"></path></svg>