<svg id="visual" viewBox="0 0 960 300" width="960" height="300" xmlns="http://www.w3.org/2000/svg" xmlns:xlink="http://www.w3.org/1999/xlink" version="1.1"><rect x="0" y="0" width="960" height="300" fill="#1C2023"></rect><path d="M0 126L16 136C32 146 64 166 96 172.7C128 179.3 160 172.7 192 172.7C224 172.7 256 179.3 288 181.2C320 183 352 180 384 173C416 166 448 155 480 151.5C512 148 544 152 576 150.7C608 149.3 640 142.7 672 139.8C704 137 736 138 768 143.3C800 148.7 832 158.3 864 159C896 159.7 928 151.3 944 147.2L960 143L960 301L944 301C928 301 896 301 864 301C832 301 800 301 768 301C736 301 704 301 672 301C640 301 608 301 576 301C544 301 512 301 480 301C448 301 416 301 384 301C352 301 320 301 288 301C256 301 224 301 192 301C160 301 128 301 96 301C64 301 32 301 16 301L0 301Z" fill="#2f4043"></path><path d="M0 179L16 181C32 183 64 187 96 183.7C128 180.3 160 169.7 192 168.5C224 167.3 256 175.7 288 178.5C320 181.3 352 178.7 384 172.5C416 166.3 448 156.7 480 159.7C512 162.7 544 178.3 576 178C608 177.7 640 161.3 672 155.7C704 150 736 155 768 163.5C800 172 832 184 864 188.5C896 193 928 190 944 188.5L960 187L960 301L944 301C928 301 896 301 864 301C832 301 800 301 768 301C736 301 704 301 672 301C640 301 608 301 576 301C544 301 512 301 480 301C448 301 416 301 384 301C352 301 320 301 288 301C256 301 224 301 192 301C160 301 128 301 96 301C64 301 32 301 16 301L0 301Z" fill="#2e3c40"></path><path d="M0 182L16 181.2C32 180.3 64 178.7 96 181C128 183.3 160 189.7 192 188.2C224 186.7 256 177.3 288 180.2C320 183 352 198 384 198.2C416 198.3 448 183.7 480 179.3C512 175 544 181 576 183.3C608 185.7 640 184.3 672 188.7C704 193 736 203 768 202C800 201 832 189 864 190.2C896 191.3 928 205.7 944 212.8L960 220L960 301L944 301C928 301 896 301 864 301C832 301 800 301 768 301C736 301 704 301 672 301C640 301 608 301 576 301C544 301 512 301 480 301C448 301 416 301 384 301C352 301 320 301 288 301C256 301 224 301 192 301C160 301 128 301 96 301C64 301 32 301 16 301L0 301Z" fill="#2c393d"></path><path d="M0 215L16 213.7C32 212.3 64 209.7 96 212.5C128 215.3 160 223.7 192 228C224 232.3 256 232.7 288 230C320 227.3 352 221.7 384 219.3C416 217 448 218 480 216.8C512 215.7 544 212.3 576 212.3C608 212.3 640 215.7 672 217.8C704 220 736 221 768 218.5C800 216 832 210 864 206C896 202 928 200 944 199L960 198L960 301L944 301C928 301 896 301 864 301C832 301 800 301 768 301C736 301 704 301 672 301C640 301 608 301 576 301C544 301 512 301 480 301C448 301 416 301 384 301C352 301 320 301 288 301C256 301 224 301 192 301C160 301 128 301 96 301C64 301 32 301 16 301L0 301Z" fill="#2b353a"></path><path d="M0 214L16 218C32 222 64 230 96 230.5C128 231 160 224 192 223.5C224 223 256 229 288 231.8C320 234.7 352 234.3 384 235.7C416 237 448 240 480 238C512 236 544 229 576 225.3C608 221.7 640 221.3 672 223.2C704 225 736 229 768 233.5C800 238 832 243 864 240.3C896 237.7 928 227.3 944 222.2L960 217L960 301L944 301C928 301 896 301 864 301C832 301 800 301 768 301C736 301 704 301 672 301C640 301 608 301 576 301C544 301 512 301 480 301C448 301 416 301 384 301C352 301 320 301 288 301C256 301 224 301 192 301C160 301 128 301 96 301C64 301 32 301 16 301L0 301Z" fill="#2a3137"></path><path d="M0 254L16 254C32 254 64 254 96 252.5C128 251 160 248 192 246.2C224 244.3 256 243.7 288 244.8C320 246 352 249 384 252.8C416 256.7 448 261.3 480 259.2C512 257 544 248 576 244C608 240 640 241 672 243.2C704 245.3 736 248.7 768 251.7C800 254.7 832 257.3 864 258C896 258.7 928 257.3 944 256.7L960 256L960 301L944 301C928 301 896 301 864 301C832 301 800 301 768 301C736 301 704 301 672 301C640 301 608 301 576 301C544 301 512 301 480 301C448 301 416 301 384 301C352 301 320 301 288 301C256 301 224 301 192 301C160 301 128 301 96 301C64 301 32 301 16 301L0 301Z" fill="#282e33"></path><path d="M0 279L16 277.2C32 275.3 64 271.7 96 269.8C128 268 160 268 192 266.7C224 265.3 256 262.7 288 262.2C320 261.7 352 263.3 384 263.5C416 263.7 448 262.3 480 264.7C512 267 544 273 576 274C608 275 640 271 672 271.7C704 272.3 736 277.7 768 279.5C800 281.3 832 279.7 864 278.7C896 277.7 928 277.3 944 277.2L960 277L960 301L944 301C928 301 896 301 864 301C832 301 800 301 768 301C736 301 704 301 672 301C640 301 608 301 576 301C544 301 512 301 480 301C448 301 416 301 384 301C352 301 320 301 288 301C256 301 224 301 192 301C160 301 128 301 96 301C64 301 32 301 16 301L0 301Z" fill="#272a2f"></path></svg>